<svg xmlns="http://www.w3.org/2000/svg" width="713.392" height="248.5" viewBox="0 0 713.392 248.5"><g transform="translate(-1109.076 -1419.149)"><path d="M1251.82,1667.649l-1.607-7.258,338.727-77.927,3.068,13.294Z" fill="#e33267"/><path d="M1571.805,1570.886l47.813,11.579-39.427,30.908Z" fill="#e33267"/><g style="isolation:isolate"><path d="M1522.971,1498.053l-3.377-5.4a36.346,36.346,0,0,0,4.187-1.644,17.15,17.15,0,0,0,10.266-15.7c0-7.038-3.377-11.622-9.456-11.592a128.352,128.352,0,0,1-2.7,14.354c-2.7,10.836-6.574,17.926-11.482,18.9-5,.989-9.139-4.413-9.139-13.031,0-11.78,9-23.608,20.666-25.916,11.166-2.209,18.19,5.172,18.19,16.289C1540.125,1485.072,1534.316,1493.819,1522.971,1498.053Zm-12.383-8.972c1.891-.374,3.647-3.935,5.493-11.184a95.063,95.063,0,0,0,2.387-12.813c-7.429,3.2-11.437,11.442-11.437,17.051C1507.031,1487.286,1508.832,1489.428,1510.588,1489.081Z"/><path d="M1569.1,1484.283l16.66-3.3v5.457l-38.317,7.582v-5.456l16.074-3.181v-6.068l-12.472,2.468v-5.3l12.472-2.468v-5.864l-10.175,2.014v-4.029q-2.432,2.394-5,4.508a16.812,16.812,0,0,0-3.377-4.228c7.7-5.909,14.948-15.2,18.28-22.077l5.538-1.1a37.22,37.22,0,0,0,19.271,14.034,38.537,38.537,0,0,0-3.557,6.16,43.31,43.31,0,0,1-4.863-2.454v3.978l-10.536,2.085v5.864l12.607-2.495v5.3l-12.607,2.495Zm8.78-24.328a43.261,43.261,0,0,1-11.616-10.348,74.52,74.52,0,0,1-11.257,14.874Z"/><path d="M1596.671,1453.433c-.856,1.24-1.8,2.549-2.791,3.765a13.571,13.571,0,0,0-2.972-4,47.3,47.3,0,0,0,8.555-15.818l4.277-.847c2.927,2.073,6.844,5.326,8.6,7.936l-3.286,6.005a35.978,35.978,0,0,0-6.619-7.563,66.291,66.291,0,0,1-4.143,8.01l9.726-1.925v5.049l-11.347,2.245Zm13.418,17.64c0,2.3-.271,3.878-1.576,4.953-1.306,1.125-2.882,1.488-5.133,1.933a17.371,17.371,0,0,0-1.216-4.859,25.585,25.585,0,0,0,2.792-.552c.4-.08.495-.251.495-.71v-8.72l-3.737.739v20.551l-4.773.945V1464.8l-3.737.74v-5.253l16.885-3.341Zm10.671,2.733a45.015,45.015,0,0,1-10.176,9.1,23.72,23.72,0,0,0-3.6-3.265,35.886,35.886,0,0,0,9.411-8.185Zm-2.161-29.812c.179-1.158.315-2.306.45-3.455l-8.555,1.693v-5.1l22.828-4.517v5.1l-8.42,1.666q-.472,1.852-.945,3.552l8.1-1.6v26.977l-20.037,3.965v-26.977Zm8.33,2.839-10.041,1.987v3.212l10.041-1.987Zm0,7.343-10.041,1.987v3.264l10.041-1.987Zm0,7.445-10.041,1.987v3.264l10.041-1.987Zm-.045,8.118a46.677,46.677,0,0,1,7.654,5.012l-4.232,4.254a42.364,42.364,0,0,0-7.385-5.474Z"/><path d="M1651.828,1460.773c-3.962,3.436-8.329,7.105-12.021,10.08l-2.027-5.719c1.261-.861,2.792-1.98,4.458-3.176v-15.2l-4.052.8v-5.814l4.052-.8v-11.423l5-.99v11.423l3.377-.668v5.814l-3.377.668v12.29l3.063-2.34Zm27.061-22.285a84.232,84.232,0,0,1-5.989,18.931c.766,4.387,1.8,6.936,2.882,6.722.63-.124.99-2.082,1.125-6.648a9.4,9.4,0,0,0,3.6,2.653c-.766,6.934-2.072,9.13-5.448,9.8-2.522.5-4.413-1.829-5.809-5.887a44.87,44.87,0,0,1-6.3,7.978,18.466,18.466,0,0,0-3.827-3.067,41.225,41.225,0,0,0,5.764-6.546c-4.773,2.372-9.816,4.9-13.688,6.788l-1.26-5.41c3.916-1.592,9.815-4.289,15.488-6.839l.405,3.948c.676-1.052,1.306-2.094,1.892-3.179a157.765,157.765,0,0,1-1.892-21.044l-14.543,2.878v-5.507l14.363-2.842c-.045-2.337-.089-4.623-.089-6.969l5.087-1.007c-.045,2.355-.045,4.65,0,6.987l4.773-.945a33.234,33.234,0,0,0-3.917-3.253l3.016-3.555a22.367,22.367,0,0,1,4.953,3.966l-1.936,2.423,1.981-.392v5.508l-8.735,1.728c.18,4.6.45,8.886.856,12.682a79.765,79.765,0,0,0,2.476-9.975Zm-14.724,1.945v15.5l-11.571,2.29v-15.5Zm-4.187,5.469-3.467.686v6.221l3.467-.686Z"/><path d="M1701.786,1424.472a114.232,114.232,0,0,0,12.742-4l-.045,5.925a132.011,132.011,0,0,1-14.677,4.179,46.747,46.747,0,0,1-2.567,5.709,16.059,16.059,0,0,1,5.088-2.026c2.746-.544,5,.336,5.988,2.741,2.341-1.687,4.233-2.928,6.079-4.211,1.755-1.215,3.332-2.343,5-3.641l2.251,5.47c-1.441.744-3.828,2.236-5.358,3.2-2.026,1.319-4.593,2.949-7.34,4.92.045,2.847.136,6.6.181,8.939l-5.4,1.07c.134-1.557.179-4.014.224-6.266-3.376,2.861-5.177,5.206-5.177,7.756,0,2.8,2.116,3.15,6.529,2.277a73.5,73.5,0,0,0,12.787-3.958l-.181,6.614a109.714,109.714,0,0,1-12.742,3.389c-7.068,1.4-12.292.494-12.292-6.084,0-6.528,5.4-11.676,10.536-15.7a2.752,2.752,0,0,0-3.151-1.11c-2.522.5-5.314,2.683-7.025,4.909a76.117,76.117,0,0,0-4.187,6.438l-4.817-3.126a64.947,64.947,0,0,0,9.95-16.044l-.585.116c-1.846.365-5.133.914-7.61,1.2v-5.966a52.515,52.515,0,0,0,7.925-.956l2.161-.428a34.7,34.7,0,0,0,.9-6.042l5.943-.616C1702.688,1420.469,1702.372,1422.214,1701.786,1424.472Z"/></g><g style="isolation:isolate"><path d="M1613.4,1538.72c3.781-1.106,11.21-3.341,19.45-5.736,4.637-1.377,9.546-2.654,12.742-3.44l.046,6.519c-2.432.532-6.3,1.3-8.691,2.433-5.448,2.71-9.545,10.1-9.545,16.168,0,8.414,6.934,10.051,14.588,8.994l-2.116,7.406c-9.455,1.157-18.37-2.79-18.37-13.856a26.261,26.261,0,0,1,6.708-17.085c-4.232,1.347-13.417,4.287-18.64,6.6l-.586-6.871C1610.783,1539.44,1612.54,1538.991,1613.4,1538.72Zm29.4,9.837-3.422,2.411a32.184,32.184,0,0,0-3.513-6.394l3.332-2.24A51.228,51.228,0,0,1,1642.8,1548.557Zm5.223-3.533-3.377,2.505a35.814,35.814,0,0,0-3.693-6.154l3.287-2.384A60.427,60.427,0,0,1,1648.02,1545.024Z"/><path d="M1667.963,1526.187c-.045,1.131-.09,2.364-.135,3.648a58.711,58.711,0,0,0,8.284-3.476l.136,6.3c-2.566,1.171-5.674,2.3-8.6,3.283-.044,1.538-.044,3.119-.044,4.6v1.887a38.1,38.1,0,0,1,8.645-3.037c6.934-1.372,12.382,1.629,12.382,8.667,0,6.017-2.792,11.108-9.951,14.565a41.727,41.727,0,0,1-5.9,1.983l-2.071-6.169a33.717,33.717,0,0,0,5.538-1.453c3.647-1.486,6.528-4.1,6.528-7.819,0-3.467-2.7-4.973-6.619-4.2a31.317,31.317,0,0,0-8.464,3.1c.09,4.011.18,7.971.18,9.7,0,6.323-1.981,8.4-4.953,8.986-4.367.865-10.536-2.2-10.536-7.6,0-4.436,4.5-9.968,10.041-13.767-.045-1.215-.045-2.438-.045-3.611v-4.284c-.856.22-1.666.432-2.387.574a50.362,50.362,0,0,1-6.3.993l-.09-6.153a45.081,45.081,0,0,0,6.213-.822c.811-.16,1.711-.389,2.612-.618.045-1.794.045-3.273.045-4.14a44.18,44.18,0,0,0-.316-4.425l6.214-1.23C1668.233,1522.615,1668.053,1524.844,1667.963,1526.187Zm-6.754,33.923c.811-.161,1.441-.693,1.441-2.427,0-1.275-.045-3.612-.135-6.348-2.746,2.226-4.592,4.682-4.592,6.467C1657.923,1559.383,1660.039,1560.341,1661.209,1560.11Zm31.067-30.473-2.7,5.736c-2.161-1.663-8.059-4.321-10.85-5.3l2.475-5.437A71.572,71.572,0,0,1,1692.276,1529.637Z"/><path d="M1717.9,1515.642c-.045.519-.045,1.284-.045,2.1a94.554,94.554,0,0,0,11.391-3.631l-.045,5.873c-2.972,1-7.068,2.266-11.436,3.386v5.252c4.547-1.155,8.375-2.32,12.022-3.6l-.045,6.027c-4.053,1.311-7.564,2.363-11.887,3.372.09,1.92.18,3.993.315,6.006a27.011,27.011,0,0,1,12.607,5.205l-3.242,6.353a26.459,26.459,0,0,0-9.095-5.288c.045.7.045,1.317.045,1.878,0,4.334-2.926,8.279-8.87,9.455-7.2,1.426-10.986-.936-10.986-6.342,0-5.15,4.187-9.6,11.121-10.972a25.676,25.676,0,0,1,2.792-.4c-.09-1.563-.135-3.186-.18-4.707l-2.342.463a101.9,101.9,0,0,1-10.715,1.458l-.045-6.009a70.855,70.855,0,0,0,10.85-1.178l2.161-.428c0-1.683,0-3.518.046-5.261l-1.666.329a92.513,92.513,0,0,1-11.031,1.266l-.136-5.787a74.416,74.416,0,0,0,11.121-1.079l1.757-.348v-2.4a22.274,22.274,0,0,0-.27-3.466l6.078-1.2C1718.037,1513.014,1717.947,1514.307,1717.9,1515.642Zm-9.095,36.782c2.386-.472,3.963-1.549,3.963-4.507,0-.561,0-1.274-.046-2.184a22.283,22.283,0,0,0-3.692.374c-3.2.633-4.953,2.408-4.953,4.142C1704.079,1552.187,1705.7,1553.039,1708.807,1552.424Z"/><path d="M1754.6,1509.96c-.316,1.592-.63,3.542-.946,5.44,1.486-.4,2.837-.765,3.783-.952,4.772-.945,8.149.783,8.149,8.127,0,6.017-.631,14.4-2.566,19.223a9.079,9.079,0,0,1-7.384,6.153,25.421,25.421,0,0,1-5.4.355l-.991-6.535a22.362,22.362,0,0,0,5.538-.026,4.218,4.218,0,0,0,3.377-2.86c1.216-3.148,1.8-9.434,1.8-14.483,0-4.079-1.531-4.337-4.368-3.776-.72.143-1.846.467-3.107.819-1.711,8.09-5.043,20.835-9.185,29.151l-5.853-1.493c4.368-7.545,7.474-18.461,9.1-25.768-1.621.525-3.017,1.005-3.872,1.276-1.261.505-3.647,1.334-5,1.856l-.54-6.828a40.2,40.2,0,0,0,4.817-.954c1.4-.327,3.513-.9,5.809-1.557a67.1,67.1,0,0,0,.945-11l6.709-.563C1755.14,1506.947,1754.825,1508.641,1754.6,1509.96Zm24.223,14.738-5.718,4.14c-1.17-5.429-4.368-14.026-7.564-17.881l5.357-3.661C1773.69,1511.129,1777.473,1520.12,1778.823,1524.7Z"/><path d="M1814.858,1498.494c-.045,2-.045,3.834-.09,5.526,1.215-.343,2.341-.668,3.377-.924,1.26-.351,3.017-.8,4.323-1.212v6.272c-.766.1-3.153.624-4.323.907-.991.247-2.162.53-3.467.89-.135,3.9-.315,8.12-.675,10.333-.495,2.8-1.621,3.686-3.918,4.141a60.144,60.144,0,0,1-6.8.58l.136-5.687a20.528,20.528,0,0,0,4.142-.157c.9-.178,1.306-.462,1.4-1.449.18-1.413.315-3.785.36-6.242-4.007,1.15-8.42,2.482-12.247,3.7-.045,4.7-.09,9.4,0,11.576.09,4.979.495,6.021,7.249,4.684a89.77,89.77,0,0,0,13.463-3.939l-.225,6.98a123.883,123.883,0,0,1-12.832,3.356c-11.663,2.307-13.058-.17-13.283-8.948-.046-2.184-.046-7.13-.046-11.873-1.214.394-2.251.7-3.016.954-1.441.489-4.233,1.552-5.4,1.987l-.63-6.4c1.305-.259,3.377-.771,5.672-1.48.811-.262,1.982-.6,3.423-1.034v-5.15a42.876,42.876,0,0,0-.36-5.59l6.349-1.256a39.245,39.245,0,0,0-.271,5.357c0,1.173-.045,2.916-.045,4.9,3.827-1.165,8.195-2.488,12.292-3.707v-5.762c0-1.275-.181-3.636-.315-4.63l6.033-1.194C1815.038,1494.838,1814.9,1497.109,1814.858,1498.494Z"/></g><path d="M1159.328,1525.93a165.352,165.352,0,0,1-19.505,32.554c3.211,3.411,6.422,7.27,8.741,10.258l-8.5,10.223a142.547,142.547,0,0,0-11.657-14.4,103.365,103.365,0,0,0-12.786-11.63l7.612-9.3c2.5,1.9,5.948,4.667,9.456,7.869a97.652,97.652,0,0,0,13.143-21.706l-29.437,5.825a60.624,60.624,0,0,0-7.316,2.122v-12.736a42.17,42.17,0,0,0,7.316-.624l31.579-6.249a21.683,21.683,0,0,0,6.541-2.269l7.135,6.006C1160.7,1523.486,1159.864,1524.775,1159.328,1525.93Z" fill="#e33267"/><path d="M1174.625,1530.919l31.579-6.249c2.675-.53,5.59-1.481,7.314-1.972v14.31c-1.546.231-4.876.515-7.314,1l-31.579,6.249c-3.39.671-7.851,1.778-10.288,2.485v-14.31C1166.716,1532.185,1171.71,1531.5,1174.625,1530.919Z" fill="#e33267"/><path d="M1244.191,1500.07c-.357,1.344-.832,2.862-1.308,4.53l24.264-4.8a40.116,40.116,0,0,0,6.542-1.894v12.362a58.066,58.066,0,0,0-6.542.995l-7.375,1.459c-1.129,19.328-7.017,34.279-18.079,45.159l-9.693-6.248a31.546,31.546,0,0,0,6.066-5.7c6.422-7.564,10.646-17.241,11.657-31.226l-11.063,2.189a86.1,86.1,0,0,1-9.455,17.455l-9.04-5.1c4.224-4.881,7.791-11.806,10.17-17.072a71.42,71.42,0,0,0,3.509-10.808,46.042,46.042,0,0,0,1.427-8.9l11.122.572C1245.619,1495.218,1244.727,1498.316,1244.191,1500.07Z" fill="#e33267"/><path d="M1286.511,1505.481l38.953-7.709a38.432,38.432,0,0,0,5.888-1.689v11.762c-1.606.168-4.1.587-5.888.941l-13.321,2.636a65.036,65.036,0,0,1-3.925,19.282,43.16,43.16,0,0,1-12.072,17.223l-8.445-5.97c3.984-2.662,8.147-7.756,10.526-12.422a42.564,42.564,0,0,0,3.8-16.112l-15.521,3.071c-1.725.341-4.342,1.009-6.007,1.489v-11.838A40.866,40.866,0,0,0,1286.511,1505.481Zm7.731-20.784,23.787-4.708a47.736,47.736,0,0,0,6.9-1.965v11.613c-2.2.286-4.639.618-6.9,1.066l-23.787,4.707c-2.082.412-4.935,1.127-6.9,1.665v-11.613A43.273,43.273,0,0,0,1294.242,1484.7Z" fill="#e33267"/><path d="M1358.31,1497.116a95.2,95.2,0,0,0,15.223-19.42l7.137,7.428a120.729,120.729,0,0,1-13.263,16.036v25.1c0,2.847.061,7.33.477,8.9l-10.705,2.119c.178-1.684.357-6.214.357-9.062V1510.23a146.188,146.188,0,0,1-16.236,11.305l-4.222-9.8A89.286,89.286,0,0,0,1358.31,1497.116Z" fill="#e33267"/><path d="M1409.085,1502.427a89.72,89.72,0,0,0,22.718-34.464l5.59,11.7a98.621,98.621,0,0,1-23.134,32.973c-6.067,5.7-13.8,11.122-21.29,14.1l-6.126-10.775A67.219,67.219,0,0,0,1409.085,1502.427Zm2.021-24.9-7.374,10.974a102.825,102.825,0,0,0-14.927-13.454l6.839-10.568C1399.748,1467.189,1407.538,1473.439,1411.106,1477.528Z" fill="#e33267"/><path d="M1490.773,1451.873l-4.579,3.3,6.066,3.52a45.921,45.921,0,0,0-2.321,6.6,106.841,106.841,0,0,1-10.287,26.609,79.813,79.813,0,0,1-24.145,26.355l-8.564-7.895c12.846-7.486,19.031-15.079,24.086-23.2,3.746-5.986,7.076-15.261,7.85-20.284l-14.809,2.93a112.318,112.318,0,0,1-14.986,20.872l-8.088-5.966c10.526-10.25,15.343-20.193,18.495-27.11a53.567,53.567,0,0,0,3.153-9.54l10.525,2.263c-1.367,2.668-2.794,6.022-3.687,8.146l9.575-1.894a21.261,21.261,0,0,0,5.471-1.907,64.235,64.235,0,0,0-3.984-8.2l5.59-3.953C1487.62,1445,1489.7,1449.462,1490.773,1451.873Zm7.373-5.131-5.589,4.1a72.488,72.488,0,0,0-4.7-9.409l5.59-3.953A92.069,92.069,0,0,1,1498.146,1446.742Z" fill="#e33267"/><g style="isolation:isolate"><path d="M1296.118,1598.013c-1.069,7.48-2.5,18.776-7.314,29.169a62.764,62.764,0,0,1-22.6,26.124l-8.088-8.814c7.553-3.742,17.128-11.63,21.707-21.752a70,70,0,0,0,5.293-22.1l-26.108,5.167V1616.9c0,1.124,0,4.271.238,6.845l-10.644,2.107c.177-2.582.356-4.64.356-6.963v-15.733c0-2.173-.119-4.772-.3-6.909,2.022-.25,4.936-.677,7.79-1.242l27.237-5.39a34.087,34.087,0,0,0,6.721-1.93l6.958,4.168C1296.951,1593.279,1296.3,1596.78,1296.118,1598.013Z"/><path d="M1326.2,1618.956a89.688,89.688,0,0,0,22.718-34.464l5.59,11.706a98.593,98.593,0,0,1-23.134,32.973c-6.065,5.695-13.8,11.121-21.29,14.1l-6.125-10.775A67.2,67.2,0,0,0,1326.2,1618.956Zm2.023-24.9-7.375,10.974a102.82,102.82,0,0,0-14.927-13.453l6.839-10.569C1316.867,1583.718,1324.658,1589.968,1328.227,1594.057Z"/><path d="M1399.436,1576.294a157.236,157.236,0,0,1-8.98,21.556,139.592,139.592,0,0,1,16.176,17.7l-8.267,10.7a108.723,108.723,0,0,0-14.213-17.715c-6.244,9.4-14.035,18.51-21.825,24.772l-7.493-8.332c9.634-6.327,19.03-17.4,24.323-25.866,3.865-6.309,7.076-13.538,8.325-18.58l-18.495,3.661c-2.675.529-5.946,1.626-7.612,2.1v-12.886a56.945,56.945,0,0,0,7.612-.907l19.864-3.931a23.5,23.5,0,0,0,7.136-2.536l5.888,4.3A56.765,56.765,0,0,0,1399.436,1576.294Z"/><path d="M1419.377,1567.778a62.739,62.739,0,0,0-.714-9.6l11.239-2.224c-.237,2.894-.593,6.261-.593,9.857v10.264c8.028,1.334,19.565,4.37,24.56,6.453l-4.1,13.474a134.915,134.915,0,0,0-20.457-6.666v19.255c0,2.023.356,7.871.653,11.184l-11.3,2.236a109.6,109.6,0,0,0,.714-11.455Z"/><path d="M1476.438,1582.783l-8.8,5.862c-1.011-3.846-3.866-13.095-5.471-16.374l8.682-5.614C1472.513,1570.523,1475.249,1578.673,1476.438,1582.783Zm28.724-14.3a83.937,83.937,0,0,1-7.969,22.855c-5.53,10.235-13.023,18.236-20.16,23.094l-7.554-8.245a53.133,53.133,0,0,0,19.924-19.526c3.925-6.995,6.72-17.737,7.255-27.133l10.17,2.108C1505.995,1564.721,1505.579,1566.6,1505.162,1568.482Zm-15.521,6.968-8.623,5.453a140.333,140.333,0,0,0-4.937-15.806l8.564-5.216C1485.835,1562.942,1488.749,1572.1,1489.641,1575.45Z"/><path d="M1559.667,1525.406c4.044-.8,7.374,2.736,7.374,7.83s-3.33,9.95-7.2,10.715c-.3,1.182-.535,2.353-.713,3.288-1.428,7.324-3.866,19.195-8.981,28.9a67.292,67.292,0,0,1-24.2,25.842l-7.85-9.309a51.207,51.207,0,0,0,23.372-21.932,57.494,57.494,0,0,0,6.542-20.624l-26.167,5.178c-2.914.577-6.185,1.449-7.732,1.9v-12.811a65.546,65.546,0,0,0,7.732-.855l26.226-5.191a27.36,27.36,0,0,0,4.282-1.222,4.725,4.725,0,0,1-.06-.962C1552.292,1531.061,1555.623,1526.206,1559.667,1525.406Zm0,13.261c1.725-.342,3.151-2.422,3.151-4.595s-1.426-3.688-3.151-3.347-3.152,2.422-3.152,4.595S1557.942,1539.008,1559.667,1538.667Z"/><path d="M1578.273,1579.337c0-4.645,2.618-8.759,6.245-9.477,3.687-.729,6.3,2.349,6.3,6.994s-2.617,8.834-6.3,9.564C1580.891,1587.135,1578.273,1583.982,1578.273,1579.337Zm1.309-38.543-.355-11.842,10.644-2.107-.357,11.984-1.546,25.629-6.839,1.353Z"/></g></g></svg>